<svg width="128" height="128" viewBox="0 0 128 128" xmlns="http://www.w3.org/2000/svg"><g transform="translate(26 20)" fill="none" fill-rule="evenodd"><path d="M73 0a7 7 0 0 1 6.99 6.616L80 7v74a7.001 7.001 0 0 1-6.617 6.99L73 88H9.723c-6.081 0-9.53-3.284-9.715-9.222l-.008-.5.004-71.272A7 7 0 0 1 6.577.013L7.004 0H73Zm0 4H7.004A3 3 0 0 0 4.02 6.707l-.015.298L4 78.276c.002 3.905 1.568 5.605 5.313 5.718l.41.006H73c1.56 0 2.841-1.19 2.987-2.712L76 81V7a3 3 0 0 0-2.712-2.986L73 4Zm-7 68a2 2 0 0 1 .233 3.987L66 76H14a2 2 0 0 1-.234-3.987L14 72h52Zm-2-48a4 4 0 0 1 3.989 3.701l.01.299v30a4 4 0 0 1-3.7 3.989l-.3.011H52a4 4 0 0 1-3.988-3.701L48 58V28a4 4 0 0 1 3.701-3.989L52 24h12ZM38 58a2 2 0 0 1 .233 3.987L38 62H14a2 2 0 0 1-.234-3.987L14 58h24Zm26-30H52v30h12V28Zm-35.143-5.502c2.977 0 5.59.65 7.84 1.951 1.77 1.031 3.14 2.38 4.113 4.043.984 1.7 1.477 3.656 1.477 5.871 0 3.41-.95 5.989-2.848 7.735-1.395 1.289-3.146 1.933-5.256 1.933-2.46 0-4.137-.89-5.027-2.672-1.278 1.735-2.842 2.602-4.694 2.602-1.207 0-2.162-.375-2.865-1.125-.773-.832-1.16-2.04-1.16-3.621 0-2.004.375-3.944 1.125-5.819.938-2.378 2.566-3.568 4.887-3.568 1.374 0 2.651.49 3.832 1.467l.351.309 1.09-1.74h3.41l-1.37 8.613-.045.301-.034.272-.04.456a3.72 3.72 0 0 0-.005.183c0 .985.446 1.477 1.336 1.477 1.195 0 2.145-.627 2.848-1.88.726-1.302 1.09-2.925 1.09-4.87 0-2.684-.827-4.84-2.479-6.469-1.898-1.875-4.441-2.812-7.629-2.812-3.433 0-6.275 1.125-8.525 3.375-2.39 2.402-3.586 5.607-3.586 9.615 0 6.738 3.562 10.107 10.687 10.107 3.105 0 6.23-.669 9.374-2.007l.787-.348v2.883l-.696.322c-2.803 1.238-5.876 1.857-9.219 1.857-4.57 0-8.132-1.16-10.687-3.48-2.496-2.262-3.744-5.361-3.744-9.299 0-3.023.703-5.754 2.11-8.191a14.448 14.448 0 0 1 5.378-5.38c2.426-1.394 5.15-2.091 8.174-2.091Zm-.861 10.564c-.61 0-1.084.206-1.424.616-.278.345-.537 1.082-.776 2.212l-.156.811-.13.783-.094.663c-.05.401-.075.722-.075.962 0 .996.428 1.495 1.284 1.495.666 0 1.31-.366 1.93-1.098l.232-.291.896-5.572-.29-.178c-.483-.268-.948-.403-1.397-.403Z" fill="#282D37" fill-rule="nonzero"/><path d="M66.74 11.977a2 2 0 0 1 .232 3.986l-.233.014H14a2 2 0 0 1-.233-3.987l.234-.013h52.74Z" fill="#EC0016"/></g></svg>